<svg width="150" height="58" viewBox="0 0 150 58" fill="none" xmlns="http://www.w3.org/2000/svg">
<path d="M2.01704 57.2751C2.08851 57.5418 2.36268 57.7001 2.62941 57.6286L6.97608 56.4639C7.24281 56.3925 7.4011 56.1183 7.32963 55.8516C7.25816 55.5848 6.98399 55.4265 6.71726 55.498L2.85355 56.5333L1.81828 52.6696C1.74681 52.4028 1.47264 52.2446 1.2059 52.316C0.939171 52.3875 0.78088 52.6617 0.852351 52.9284L2.01704 57.2751ZM35 0.854004L34.567 0.604004L2.06699 56.8957L2.5 57.1457L2.93301 57.3957L35.433 1.104L35 0.854004Z" fill="#090909"/>
<path d="M147.983 57.2751C147.911 57.5418 147.637 57.7001 147.371 57.6286L143.024 56.4639C142.757 56.3925 142.599 56.1183 142.67 55.8516C142.742 55.5848 143.016 55.4265 143.283 55.498L147.146 56.5333L148.182 52.6696C148.253 52.4028 148.527 52.2446 148.794 52.316C149.061 52.3875 149.219 52.6617 149.148 52.9284L147.983 57.2751ZM115 0.854004L115.433 0.604004L147.933 56.8957L147.5 57.1457L147.067 57.3957L114.567 1.104L115 0.854004Z" fill="#090909"/>
</svg>
