<svg width="28" height="29" viewBox="0 0 28 29" fill="none" xmlns="http://www.w3.org/2000/svg">
<path d="M24.8501 1.60717C21.1413 5.05716 18.0036 8.34131 15.1309 12.6262C13.864 14.516 12.4552 16.7404 11.5343 18.8406C11.0085 19.9542 10.0608 21.6943 9.73769 23.3673C7.97057 21.6003 6.07245 19.5946 4.13038 18.0237C2.74613 16.9044 -1.24088 19.1864 0.382058 20.499C3.29077 22.8505 5.70979 25.7793 8.53895 28.2357C9.7223 29.2619 12.3448 27.0333 12.9611 26.0982C14.9841 23.0177 15.2606 19.2521 16.735 15.8919C18.9861 10.7528 22.9783 6.53127 26.9201 2.86536C29.5316 0.247391 26.8344 -0.235476 24.854 1.60717" fill="#239F73"/>
</svg>
